<?xml version="1.0" encoding="UTF-8"?>
<svg id="Layer_1" data-name="Layer 1" xmlns="http://www.w3.org/2000/svg" viewBox="0 0 179.88 111.41">
  <defs>
    <style>
      .cls-1 {
        fill: #d0ea65;
      }

      .cls-2 {
        fill: #007f80;
      }

      .cls-3 {
        fill: #006280;
      }

      .cls-4 {
        fill: #91d67b;
      }

      .cls-5 {
        fill: #38ad87;
      }
    </style>
  </defs>
  <g>
    <path class="cls-3" d="M141.22,110.91c-21.04,0-38.16-24.77-38.16-55.21S120.18.5,141.22.5s38.16,24.77,38.16,55.21-17.12,55.21-38.16,55.21Z"/>
    <path class="cls-3" d="M141.22,1c20.77,0,37.66,24.54,37.66,54.71s-16.9,54.71-37.66,54.71-37.66-24.54-37.66-54.71S120.45,1,141.22,1M141.22,0c-21.35,0-38.66,24.94-38.66,55.71s17.31,55.71,38.66,55.71,38.66-24.94,38.66-55.71S162.57,0,141.22,0h0Z"/>
  </g>
  <g>
    <path class="cls-2" d="M107.95,103.15c-18.07,0-32.77-21.28-32.77-47.44s14.7-47.44,32.77-47.44,32.77,21.28,32.77,47.44-14.7,47.44-32.77,47.44Z"/>
    <path class="cls-2" d="M107.95,8.77c17.79,0,32.27,21.06,32.27,46.94s-14.48,46.94-32.27,46.94-32.27-21.06-32.27-46.94,14.48-46.94,32.27-46.94M107.95,7.77c-18.38,0-33.27,21.46-33.27,47.94s14.9,47.94,33.27,47.94,33.27-21.46,33.27-47.94S126.32,7.77,107.95,7.77h0Z"/>
  </g>
  <g>
    <path class="cls-5" d="M74.68,97.02c-15.72,0-28.52-18.53-28.52-41.31s12.79-41.31,28.52-41.31,28.52,18.53,28.52,41.31-12.79,41.31-28.52,41.31Z"/>
    <path class="cls-5" d="M74.68,14.9c15.45,0,28.02,18.31,28.02,40.81s-12.57,40.81-28.02,40.81-28.02-18.31-28.02-40.81,12.57-40.81,28.02-40.81M74.68,13.9c-16.03,0-29.02,18.72-29.02,41.81s12.99,41.81,29.02,41.81,29.02-18.72,29.02-41.81-12.99-41.81-29.02-41.81h0Z"/>
  </g>
  <g>
    <path class="cls-4" d="M43.11,89.72c-8.26,0-16.01-6.43-20.22-16.78-2.12-5.2-3.23-11.16-3.23-17.23.97-8.83,3.24-21.55,11.7-29.35,3.54-2.97,7.61-4.55,11.75-4.56,10.24.15,17.29,9.08,20.22,16.68,2.12,5.2,3.24,11.16,3.24,17.23,0,18.76-10.52,34.01-23.45,34.01Z"/>
    <path class="cls-4" d="M43.11,22.3c10,.15,16.89,8.91,19.76,16.38,2.09,5.13,3.2,11.02,3.2,17.03,0,18.48-10.3,33.51-22.95,33.51-8.06,0-15.63-6.31-19.76-16.47-2.09-5.13-3.19-11-3.2-16.99.97-8.8,3.22-21.37,11.51-29.01,3.47-2.91,7.42-4.45,11.44-4.46M43.11,21.3c-4.41,0-8.54,1.71-12.09,4.69-8.35,7.69-10.79,19.93-11.86,29.72,0,6.35,1.19,12.31,3.27,17.42,4.16,10.23,11.86,17.09,20.68,17.09,13.23,0,23.95-15.45,23.95-34.51,0-6.35-1.19-12.31-3.27-17.41-3.19-8.29-10.53-16.85-20.68-17h0Z"/>
  </g>
  <g>
    <path class="cls-1" d="M19.16,82.82c-6.57,0-12.73-5.12-16.08-13.36-1.69-4.15-2.58-8.9-2.58-13.75.77-7.04,2.58-17.19,9.33-23.4,2.81-2.36,6.05-3.62,9.33-3.62,8.14.12,13.75,7.23,16.08,13.28,1.69,4.15,2.58,8.9,2.58,13.75,0,14.95-8.37,27.11-18.66,27.11Z"/>
    <path class="cls-1" d="M19.15,29.19c7.9.12,13.35,7.05,15.62,12.98,1.66,4.08,2.54,8.77,2.54,13.55,0,14.67-8.15,26.61-18.16,26.61-6.36,0-12.35-5-15.62-13.05-1.66-4.08-2.54-8.74-2.54-13.5.77-7.01,2.56-17,9.13-23.06,2.74-2.3,5.86-3.51,9.02-3.52M19.16,28.19c-3.53,0-6.83,1.37-9.67,3.75C2.81,38.1.86,47.89,0,55.72c0,5.08.95,9.84,2.62,13.93,3.33,8.18,9.49,13.67,16.54,13.67,10.58,0,19.16-12.36,19.16-27.61,0-5.08-.95-9.84-2.62-13.93-2.55-6.63-8.42-13.48-16.54-13.6h0Z"/>
  </g>
</svg>