<svg viewBox="0 0 700 400" xmlns="http://www.w3.org/2000/svg" style="width:100%;height:auto;font-family:'Source Sans Pro',system-ui,sans-serif;">
    <style>
      @keyframes flowMove { 0% { stroke-dashoffset: 20; } 100% { stroke-dashoffset: 0; } }
      .flow-line { stroke-dasharray: 5, 5; animation: flowMove 0.8s linear infinite; }
    </style>
    <g transform="translate(50, 50)"><circle cx="0" cy="0" r="20" fill="#9333ea" opacity="0.9"/><text x="0" y="5" text-anchor="middle" fill="white" font-size="12">👤</text><text x="0" y="40" text-anchor="middle" font-size="11" fill="#6b7280">Tokyo</text></g>
    <g transform="translate(50, 150)"><circle cx="0" cy="0" r="20" fill="#9333ea" opacity="0.9"/><text x="0" y="5" text-anchor="middle" fill="white" font-size="12">👤</text><text x="0" y="40" text-anchor="middle" font-size="11" fill="#6b7280">London</text></g>
    <g transform="translate(50, 250)"><circle cx="0" cy="0" r="20" fill="#9333ea" opacity="0.9"/><text x="0" y="5" text-anchor="middle" fill="white" font-size="12">👤</text><text x="0" y="40" text-anchor="middle" font-size="11" fill="#6b7280">São Paulo</text></g>
    <g transform="translate(200, 150)"><rect x="-50" y="-60" width="100" height="120" rx="12" fill="#ff6b35" opacity="0.9"/><text x="0" y="-25" text-anchor="middle" fill="white" font-weight="600" font-size="13">Global</text><text x="0" y="-5" text-anchor="middle" fill="white" font-weight="600" font-size="13">Accelerator</text><text x="0" y="25" text-anchor="middle" fill="white" font-size="10" opacity="0.9">Anycast IPs</text><text x="0" y="42" text-anchor="middle" fill="white" font-size="10" opacity="0.9">Health routing</text></g>
    <line x1="70" y1="50" x2="150" y2="120" stroke="#9333ea" stroke-width="2" opacity="0.5"/>
    <line x1="70" y1="150" x2="150" y2="150" stroke="#9333ea" stroke-width="2" opacity="0.5"/>
    <line x1="70" y1="250" x2="150" y2="180" stroke="#9333ea" stroke-width="2" opacity="0.5"/>
    <g transform="translate(380, 80)"><rect x="-45" y="-35" width="90" height="70" rx="8" fill="#3b82f6" opacity="0.9"/><text x="0" y="-5" text-anchor="middle" fill="white" font-weight="600" font-size="12">ALB</text><text x="0" y="15" text-anchor="middle" fill="white" font-size="10" opacity="0.9">ap-northeast-1</text></g>
    <g transform="translate(380, 180)"><rect x="-45" y="-35" width="90" height="70" rx="8" fill="#3b82f6" opacity="0.9"/><text x="0" y="-5" text-anchor="middle" fill="white" font-weight="600" font-size="12">ALB</text><text x="0" y="15" text-anchor="middle" fill="white" font-size="10" opacity="0.9">eu-west-1</text></g>
    <g transform="translate(380, 280)"><rect x="-45" y="-35" width="90" height="70" rx="8" fill="#3b82f6" opacity="0.9"/><text x="0" y="-5" text-anchor="middle" fill="white" font-weight="600" font-size="12">ALB</text><text x="0" y="15" text-anchor="middle" fill="white" font-size="10" opacity="0.9">sa-east-1</text></g>
    <line x1="250" y1="120" x2="335" y2="80" stroke="#ff6b35" stroke-width="2" class="flow-line"/>
    <line x1="250" y1="150" x2="335" y2="180" stroke="#ff6b35" stroke-width="2" class="flow-line"/>
    <line x1="250" y1="180" x2="335" y2="280" stroke="#ff6b35" stroke-width="2" class="flow-line"/>
    <g transform="translate(550, 80)"><rect x="-55" y="-35" width="110" height="70" rx="8" fill="#10b981" opacity="0.9"/><text x="0" y="-5" text-anchor="middle" fill="white" font-weight="600" font-size="12">EKS Cluster</text><text x="0" y="15" text-anchor="middle" fill="white" font-size="10" opacity="0.9">GPU Inference</text></g>
    <g transform="translate(550, 180)"><rect x="-55" y="-35" width="110" height="70" rx="8" fill="#10b981" opacity="0.9"/><text x="0" y="-5" text-anchor="middle" fill="white" font-weight="600" font-size="12">EKS Cluster</text><text x="0" y="15" text-anchor="middle" fill="white" font-size="10" opacity="0.9">GPU Inference</text></g>
    <g transform="translate(550, 280)"><rect x="-55" y="-35" width="110" height="70" rx="8" fill="#10b981" opacity="0.9"/><text x="0" y="-5" text-anchor="middle" fill="white" font-weight="600" font-size="12">EKS Cluster</text><text x="0" y="15" text-anchor="middle" fill="white" font-size="10" opacity="0.9">GPU Inference</text></g>
    <line x1="425" y1="80" x2="495" y2="80" stroke="#3b82f6" stroke-width="2"/>
    <line x1="425" y1="180" x2="495" y2="180" stroke="#3b82f6" stroke-width="2"/>
    <line x1="425" y1="280" x2="495" y2="280" stroke="#3b82f6" stroke-width="2"/>
</svg>
