<?xml version="1.0" encoding="UTF-8"?>
<svg id="Layer_1" data-name="Layer 1" xmlns="http://www.w3.org/2000/svg" viewBox="0 0 116.08 147.78">
  <defs>
    <style>
      .cls-1 {
        fill: #007f80;
      }

      .cls-3 {
        fill: #91d67b;
      }

      .cls-4 {
        fill: #38ad87;
      }
    </style>
  </defs>
  <g>
    <path class="cls-1" d="M58.04,147.28c-31.73,0-57.54-17.85-57.54-39.78s25.81-39.78,57.54-39.78,57.54,17.85,57.54,39.78-25.81,39.78-57.54,39.78Z"/>
    <path class="cls-1" d="M58.04,68.22c31.45,0,57.04,17.62,57.04,39.28s-25.59,39.28-57.04,39.28S1,129.16,1,107.5s25.59-39.28,57.04-39.28M58.04,67.22C25.99,67.22,0,85.25,0,107.5s25.99,40.28,58.04,40.28,58.04-18.04,58.04-40.28-25.99-40.28-58.04-40.28h0Z"/>
  </g>
  <g>
    <path class="cls-4" d="M58.04,101.85c-27.64,0-50.12-15.54-50.12-34.63s22.48-34.63,50.12-34.63,50.12,15.54,50.12,34.63-22.48,34.63-50.12,34.63Z"/>
    <path class="cls-4" d="M58.04,33.08c27.36,0,49.62,15.31,49.62,34.13s-22.26,34.13-49.62,34.13-49.62-15.31-49.62-34.13,22.26-34.13,49.62-34.13M58.04,32.08c-27.96,0-50.62,15.73-50.62,35.13s22.66,35.13,50.62,35.13,50.62-15.73,50.62-35.13-22.66-35.13-50.62-35.13h0Z"/>
  </g>
  <g>
    <path class="cls-3" d="M58.04,57.5c-22.77,0-41.29-12.79-41.29-28.5S35.28.5,58.04.5s41.29,12.79,41.29,28.5-18.52,28.5-41.29,28.5Z"/>
    <path class="cls-3" d="M58.04,1c22.49,0,40.79,12.56,40.79,28s-18.3,28-40.79,28-40.79-12.56-40.79-28S35.55,1,58.04,1M58.04,0C34.96,0,16.25,12.98,16.25,29s18.71,29,41.79,29,41.79-12.98,41.79-29S81.12,0,58.04,0h0Z"/>
  </g>
</svg>
